<svg width="33" height="32" viewBox="0 0 33 32" fill="none" xmlns="http://www.w3.org/2000/svg">
<g clip-path="url(#clip0)">
<path fill-rule="evenodd" clip-rule="evenodd" d="M17.1253 0.00120338L17.3311 0.00481345L17.5369 0.0108302L17.7414 0.0204571L17.946 0.0324907L18.1494 0.0457277L18.3515 0.0625747L18.5537 0.0818285L18.7547 0.103489L18.9556 0.12876L19.1554 0.155233L19.3539 0.184114L19.5525 0.215401L19.7498 0.249096L19.946 0.2864L20.1421 0.324907L20.3359 0.365821L20.5308 0.409142L20.7234 0.45487L20.9159 0.504208L21.106 0.553546L21.2974 0.606493L21.4863 0.661848L21.674 0.719609L21.8617 0.778574L22.0483 0.841149L22.2336 0.904927L22.4177 0.971112L22.6006 1.0397L22.7835 1.1107L22.964 1.1829L23.1445 1.25751L23.3226 1.33453L23.5007 1.41395L23.6776 1.49457L23.8533 1.57881L24.0266 1.66425L24.1999 1.75089L24.3719 1.83994L24.5428 1.93139L24.7125 2.02525L24.8798 2.12032L25.047 2.21779L25.2131 2.31767L25.3767 2.41875L25.5404 2.52224L25.7017 2.62693L25.8617 2.73403L26.0205 2.84234L26.1782 2.95305L26.3346 3.06616L26.4887 3.18048L26.6427 3.296L26.7943 3.41393L26.9447 3.53306L27.0939 3.6546L27.2408 3.77855L27.3876 3.9037L27.532 4.03005L27.674 4.15761L27.816 4.28757L27.9555 4.41994L28.0939 4.55351L28.2299 4.68829L28.3647 4.82427L28.4983 4.96266L28.6306 5.10225L28.7606 5.24424L28.8882 5.38624L29.0145 5.53064L29.1397 5.67745L29.2636 5.82426L29.3851 5.97348L29.5043 6.1239L29.6222 6.27552L29.7377 6.42955L29.852 6.58358L29.9652 6.74002L30.0759 6.89766L30.1842 7.0565L30.2913 7.21655L30.396 7.3778L30.4995 7.54146L30.6005 7.70511L30.7004 7.87118L30.7979 8.03844L30.893 8.20571L30.9868 8.37539L31.0783 8.54626L31.1673 8.71834L31.254 8.89163L31.3394 9.06491L31.4236 9.2406L31.5043 9.4175L31.5837 9.59559L31.6607 9.77369L31.7353 9.95419L31.8075 10.1347L31.8785 10.3176L31.9471 10.5005L32.0133 10.6846L32.0771 10.87L32.1396 11.0565L32.1986 11.2442L32.2564 11.4319L32.3117 11.6208L32.3635 11.8122L32.414 12.0023L32.4633 12.1948L32.5091 12.3874L32.5524 12.5823L32.5933 12.7761L32.6318 12.9722L32.6691 13.1684L32.7028 13.3657L32.7341 13.5643L32.763 13.7628L32.7894 13.9626L32.8147 14.1635L32.8364 14.3645L32.8556 14.5667L32.8725 14.7688L32.8857 14.9722L32.8977 15.1768L32.9074 15.3813L32.9134 15.5871L32.917 15.7929L32.9182 15.9999L32.917 16.2056L32.9134 16.4126L32.9074 16.6172L32.8977 16.8218L32.8857 17.0263L32.8725 17.2297L32.8556 17.4319L32.8364 17.634L32.8147 17.8362L32.7894 18.036L32.763 18.2357L32.7341 18.4343L32.7028 18.6328L32.6691 18.8302L32.6318 19.0263L32.5933 19.2225L32.5524 19.4174L32.5091 19.6112L32.4633 19.8037L32.414 19.9962L32.3635 20.1876L32.3117 20.3777L32.2564 20.5666L32.1986 20.7556L32.1396 20.9421L32.0771 21.1286L32.0133 21.3139L31.9471 21.498L31.8785 21.6821L31.8075 21.8638L31.7353 22.0444L31.6607 22.2249L31.5837 22.4042L31.5043 22.581L31.4236 22.7579L31.3394 22.9336L31.254 23.1081L31.1673 23.2814L31.0783 23.4523L30.9868 23.6232L30.893 23.7928L30.7979 23.9613L30.7004 24.1274L30.6005 24.2934L30.4995 24.4583L30.396 24.6207L30.2913 24.782L30.1842 24.942L30.0759 25.1021L29.9652 25.2585L29.852 25.415L29.7377 25.5702L29.6222 25.723L29.5043 25.8746L29.3851 26.0251L29.2636 26.1743L29.1397 26.3223L29.0145 26.4679L28.8882 26.6123L28.7606 26.7555L28.6306 26.8963L28.4983 27.0359L28.3647 27.1743L28.2299 27.3115L28.0939 27.4462L27.9555 27.5798L27.816 27.711L27.674 27.8409L27.532 27.9697L27.3876 28.096L27.2408 28.2212L27.0939 28.3439L26.9447 28.4655L26.7943 28.5846L26.6427 28.7025L26.4887 28.8193L26.3346 28.9336L26.1782 29.0455L26.0205 29.1562L25.8617 29.2657L25.7017 29.3728L25.5404 29.4775L25.3767 29.581L25.2131 29.6821L25.047 29.7808L24.8798 29.8782L24.7125 29.9733L24.5428 30.0672L24.3719 30.1586L24.1999 30.2477L24.0266 30.3355L23.8533 30.4209L23.6776 30.504L23.5007 30.5846L23.3226 30.664L23.1445 30.741L22.964 30.8156L22.7835 30.889L22.6006 30.96L22.4177 31.0274L22.2336 31.0936L22.0483 31.1586L21.8617 31.22L21.674 31.2801L21.4863 31.3367L21.2974 31.3921L21.106 31.445L20.9159 31.4955L20.7234 31.5437L20.5308 31.5894L20.3359 31.6327L20.1421 31.6736L19.946 31.7133L19.7498 31.7495L19.5525 31.7831L19.3539 31.8144L19.1554 31.8445L18.9556 31.871L18.7547 31.8951L18.5537 31.9167L18.3515 31.936L18.1494 31.9528L17.946 31.9673L17.7414 31.9781L17.5369 31.9877L17.3311 31.9937L17.1253 31.9985L16.9183 31.9997L16.7126 31.9985L16.5056 31.9937L16.301 31.9877L16.0964 31.9781L15.8919 31.9673L15.6885 31.9528L15.4863 31.936L15.2842 31.9167L15.082 31.8951L14.8822 31.871L14.6825 31.8445L14.4839 31.8144L14.2854 31.7831L14.088 31.7495L13.8919 31.7133L13.6957 31.6736L13.5008 31.6327L13.307 31.5894L13.1145 31.5437L12.922 31.4955L12.7306 31.445L12.5405 31.3921L12.3516 31.3367L12.1627 31.2801L11.9761 31.22L11.7896 31.1586L11.6043 31.0936L11.4202 31.0274L11.2361 30.96L11.0544 30.889L10.8739 30.8156L10.6934 30.741L10.514 30.664L10.3372 30.5846L10.1603 30.504L9.98457 30.4209L9.81008 30.3355L9.6368 30.2477L9.46592 30.1586L9.29505 30.0672L9.12537 29.9733L8.9569 29.8782L8.79084 29.7808L8.62477 29.6821L8.45991 29.581L8.29746 29.4775L8.13621 29.3728L7.97616 29.2657L7.81612 29.1562L7.65968 29.0455L7.50324 28.9336L7.34801 28.8193L7.19518 28.7025L7.04356 28.5846L6.89314 28.4655L6.74392 28.3439L6.59591 28.2212L6.4503 28.096L6.3059 27.9697L6.1627 27.8409L6.02191 27.711L5.88232 27.5798L5.74393 27.4462L5.60675 27.3115L5.47197 27.1743L5.3384 27.0359L5.20723 26.8963L5.07727 26.7555L4.94851 26.6123L4.82216 26.4679L4.69701 26.3223L4.57426 26.1743L4.45273 26.0251L4.33359 25.8746L4.21566 25.723L4.09894 25.5702L3.98462 25.415L3.87271 25.2585L3.762 25.1021L3.65249 24.942L3.54539 24.782L3.4407 24.6207L3.33721 24.4583L3.23613 24.2934L3.13745 24.1274L3.03998 23.9613L2.94492 23.7928L2.85105 23.6232L2.7596 23.4523L2.67055 23.2814L2.5827 23.1081L2.49727 22.9336L2.41423 22.7579L2.33361 22.581L2.25419 22.4042L2.17717 22.2249L2.10256 22.0444L2.02916 21.8638L1.95816 21.6821L1.89077 21.498L1.82459 21.3139L1.75961 21.1286L1.69823 20.9421L1.63807 20.7556L1.58151 20.5666L1.52615 20.3777L1.47321 20.1876L1.42266 19.9962L1.37453 19.8037L1.3288 19.6112L1.28548 19.4174L1.24457 19.2225L1.20486 19.0263L1.16876 18.8302L1.13506 18.6328L1.10377 18.4343L1.07369 18.2357L1.04722 18.036L1.02315 17.8362L1.00149 17.634L0.982235 17.4319L0.965388 17.2297L0.950948 17.0263L0.940118 16.8218L0.930491 16.6172L0.924474 16.4126L0.91966 16.2056L0.918457 15.9999L0.91966 15.7929L0.924474 15.5871L0.930491 15.3813L0.940118 15.1768L0.950948 14.9722L0.965388 14.7688L0.982235 14.5667L1.00149 14.3645L1.02315 14.1635L1.04722 13.9626L1.07369 13.7628L1.10377 13.5643L1.13506 13.3657L1.16876 13.1684L1.20486 12.9722L1.24457 12.7761L1.28548 12.5823L1.3288 12.3874L1.37453 12.1948L1.42266 12.0023L1.47321 11.8122L1.52615 11.6208L1.58151 11.4319L1.63807 11.2442L1.69823 11.0565L1.75961 10.87L1.82459 10.6846L1.89077 10.5005L1.95816 10.3176L2.02916 10.1347L2.10256 9.95419L2.17717 9.77369L2.25419 9.59559L2.33361 9.4175L2.41423 9.2406L2.49727 9.06491L2.5827 8.89163L2.67055 8.71834L2.7596 8.54626L2.85105 8.37539L2.94492 8.20571L3.03998 8.03844L3.13745 7.87118L3.23613 7.70511L3.33721 7.54146L3.4407 7.3778L3.54539 7.21655L3.65249 7.0565L3.762 6.89766L3.87271 6.74002L3.98462 6.58358L4.09894 6.42955L4.21566 6.27552L4.33359 6.1239L4.45273 5.97348L4.57426 5.82426L4.69701 5.67745L4.82216 5.53064L4.94851 5.38624L5.07727 5.24424L5.20723 5.10225L5.3384 4.96266L5.47197 4.82427L5.60675 4.68829L5.74393 4.55351L5.88232 4.41994L6.02191 4.28757L6.1627 4.15761L6.3059 4.03005L6.4503 3.9037L6.59591 3.77855L6.74392 3.6546L6.89314 3.53306L7.04356 3.41393L7.19518 3.296L7.34801 3.18048L7.50324 3.06616L7.65968 2.95305L7.81612 2.84234L7.97616 2.73403L8.13621 2.62693L8.29746 2.52224L8.45991 2.41875L8.62477 2.31767L8.79084 2.21779L8.9569 2.12032L9.12537 2.02525L9.29505 1.93139L9.46592 1.83994L9.6368 1.75089L9.81008 1.66425L9.98457 1.57881L10.1603 1.49457L10.3372 1.41395L10.514 1.33453L10.6934 1.25751L10.8739 1.1829L11.0544 1.1107L11.2361 1.0397L11.4202 0.971112L11.6043 0.904927L11.7896 0.841149L11.9761 0.778574L12.1627 0.719609L12.3516 0.661848L12.5405 0.606493L12.7306 0.553546L12.922 0.504208L13.1145 0.45487L13.307 0.409142L13.5008 0.365821L13.6957 0.324907L13.8919 0.2864L14.088 0.249096L14.2854 0.215401L14.4839 0.184114L14.6825 0.155233L14.8822 0.12876L15.082 0.103489L15.2842 0.0818285L15.4863 0.0625747L15.6885 0.0457277L15.8919 0.0324907L16.0964 0.0204571L16.301 0.0108302L16.5056 0.00481345L16.7126 0.00120338L16.9183 0L17.1253 0.00120338ZM16.7246 1.0012L16.5308 1.00481L16.3383 1.01082L16.147 1.01925L15.9556 1.03008L15.7643 1.04331L15.5742 1.05896L15.3852 1.07701L15.1963 1.09746L15.0086 1.12033L14.8209 1.1456L14.6344 1.17207L14.449 1.20216L14.2637 1.23344L14.0796 1.26834L13.8967 1.30444L13.7138 1.34295L13.5321 1.38386L13.3516 1.42718L13.1711 1.47171L12.9918 1.51984L12.8137 1.56918L12.6368 1.62093L12.4599 1.67387L12.2842 1.73043L12.1097 1.78819L11.9364 1.84836L11.7643 1.90973L11.5923 1.97471L11.4214 2.0409L11.2517 2.10829L11.0832 2.17808L10.916 2.25028L10.7487 2.32489L10.5838 2.4007L10.419 2.47892L10.2553 2.55955L10.0929 2.64138L9.93283 2.72441L9.77278 2.81105L9.61394 2.89769L9.4563 2.98794L9.29986 3.07819L9.14463 3.17206L8.9906 3.26712L8.83777 3.36339L8.68615 3.46207L8.53573 3.56195L8.38651 3.66423L8.2385 3.76772L8.09289 3.87362L7.94728 3.98071L7.80288 4.08902L7.66088 4.19973L7.52009 4.31284L7.3805 4.42596L7.24211 4.54148L7.10493 4.65941L6.97015 4.77734L6.83538 4.89768L6.70301 5.02042L6.57184 5.14316L6.44188 5.26831L6.31432 5.39466L6.18797 5.52342L6.06282 5.65339L5.93887 5.78335L5.81734 5.91692L5.697 6.05049L5.57787 6.18647L5.46114 6.32245L5.34562 6.46084L5.2313 6.60043L5.11939 6.74122L5.00868 6.88442L4.90038 7.02762L4.79328 7.17323L4.68738 7.32004L4.58389 7.46685L4.48161 7.61607L4.38173 7.76649L4.28305 7.91811L4.18558 8.07094L4.09051 8.22497L3.99786 8.3802L3.9064 8.53664L3.81735 8.69428L3.72951 8.85312L3.64407 9.01317L3.55983 9.17442L3.478 9.33687L3.39858 9.49932L3.32036 9.66418L3.24455 9.83025L3.16994 9.99631L3.09774 10.1636L3.02795 10.332L2.95936 10.5017L2.89317 10.6726L2.82939 10.8447L2.76682 11.0168L2.70665 11.1912L2.64889 11.3657L2.59353 11.5414L2.53938 11.7171L2.48764 11.8952L2.4383 12.0733L2.39137 12.2526L2.34564 12.4319L2.30352 12.6136L2.26261 12.7953L2.2241 12.977L2.1868 13.1611L2.1531 13.3453L2.12182 13.5294L2.09173 13.7159L2.06406 13.9024L2.03999 14.0889L2.01712 14.2767L1.99667 14.4656L1.97862 14.6545L1.96297 14.8446L1.94974 15.036L1.93891 15.2273L1.92928 15.4199L1.92326 15.6124L1.91965 15.8049L1.91845 15.9999L1.91965 16.1936L1.92326 16.3874L1.92928 16.5799L1.93891 16.7712L1.94974 16.9626L1.96297 17.1539L1.97862 17.344L1.99667 17.533L2.01712 17.7219L2.03999 17.9096L2.06406 18.0973L2.09173 18.2839L2.12182 18.4692L2.1531 18.6545L2.1868 18.8386L2.2241 19.0215L2.26261 19.2044L2.30352 19.3861L2.34564 19.5666L2.39137 19.7471L2.4383 19.9264L2.48764 20.1045L2.53938 20.2814L2.59353 20.4583L2.64889 20.634L2.70665 20.8085L2.76682 20.9818L2.82939 21.1539L2.89317 21.3259L2.95936 21.4968L3.02795 21.6665L3.09774 21.835L3.16994 22.0022L3.24455 22.1695L3.32036 22.3344L3.39858 22.4992L3.478 22.6629L3.55983 22.8253L3.64407 22.9854L3.72951 23.1454L3.81735 23.3043L3.9064 23.4619L3.99786 23.6183L4.09051 23.7736L4.18558 23.9276L4.28305 24.0804L4.38173 24.2321L4.48161 24.3825L4.58389 24.5317L4.68738 24.6797L4.79328 24.8253L4.90038 24.9709L5.00868 25.1153L5.11939 25.2573L5.2313 25.3981L5.34562 25.5377L5.46114 25.6761L5.57787 25.8133L5.697 25.9481L5.81734 26.0828L5.93887 26.2152L6.06282 26.3464L6.18797 26.4763L6.31432 26.6039L6.44188 26.7302L6.57184 26.8554L6.70301 26.9793L6.83538 27.1009L6.97015 27.2212L7.10493 27.3403L7.24211 27.4571L7.3805 27.5726L7.52009 27.6869L7.66088 27.7988L7.80288 27.9095L7.94728 28.0178L8.09289 28.1249L8.2385 28.2308L8.38651 28.3343L8.53573 28.4366L8.68615 28.5365L8.83777 28.6352L8.9906 28.7326L9.14463 28.8277L9.29986 28.9204L9.4563 29.0118L9.61394 29.1009L9.77278 29.1887L9.93283 29.2741L10.0929 29.3584L10.2553 29.4402L10.419 29.5196L10.5838 29.5978L10.7487 29.6737L10.916 29.7483L11.0832 29.8205L11.2517 29.8903L11.4214 29.9588L11.5923 30.025L11.7643 30.0888L11.9364 30.1514L12.1097 30.2116L12.2842 30.2693L12.4599 30.3247L12.6368 30.3788L12.8137 30.4306L12.9918 30.4799L13.1711 30.5268L13.3516 30.5726L13.5321 30.6147L13.7138 30.6556L13.8967 30.6941L14.0796 30.7314L14.2637 30.7651L14.449 30.7964L14.6344 30.8265L14.8209 30.8541L15.0086 30.8782L15.1963 30.9011L15.3852 30.9215L15.5742 30.9396L15.7643 30.9552L15.9556 30.9685L16.147 30.9793L16.3383 30.9889L16.5308 30.9949L16.7246 30.9986L16.9183 30.9998L17.1133 30.9986L17.3058 30.9949L17.4984 30.9889L17.6909 30.9793L17.8822 30.9685L18.0736 30.9552L18.2637 30.9396L18.4526 30.9215L18.6415 30.9011L18.8293 30.8782L19.0158 30.8541L19.2023 30.8265L19.3888 30.7964L19.5729 30.7651L19.7571 30.7314L19.9412 30.6941L20.1229 30.6556L20.3046 30.6147L20.4863 30.5726L20.6656 30.5268L20.8449 30.4799L21.023 30.4306L21.2011 30.3788L21.3768 30.3247L21.5525 30.2693L21.727 30.2116L21.9014 30.1514L22.0735 30.0888L22.2456 30.025L22.4165 29.9588L22.5862 29.8903L22.7546 29.8205L22.9219 29.7483L23.088 29.6737L23.254 29.5978L23.4189 29.5196L23.5813 29.4402L23.7438 29.3584L23.905 29.2741L24.0651 29.1887L24.2239 29.1009L24.3816 29.0118L24.538 28.9204L24.6932 28.8277L24.8473 28.7326L25.0001 28.6352L25.1517 28.5365L25.3021 28.4366L25.4514 28.3343L25.5982 28.2308L25.745 28.1249L25.8906 28.0178L26.0338 27.9095L26.177 27.7988L26.3178 27.6869L26.4574 27.5726L26.5958 27.4571L26.7317 27.3403L26.8677 27.2212L27.0013 27.1009L27.1349 26.9793L27.2648 26.8554L27.3948 26.7302L27.5235 26.6039L27.6499 26.4763L27.775 26.3464L27.8978 26.2152L28.0205 26.0828L28.1409 25.9481L28.2588 25.8133L28.3767 25.6761L28.4922 25.5377L28.6054 25.3981L28.7185 25.2573L28.8292 25.1153L28.9375 24.9709L29.0446 24.8253L29.1505 24.6797L29.254 24.5317L29.3563 24.3825L29.4561 24.2321L29.5548 24.0804L29.6511 23.9276L29.7461 23.7736L29.84 23.6183L29.9303 23.4619L30.0205 23.3043L30.1072 23.1454L30.1938 22.9854L30.2768 22.8253L30.3587 22.6629L30.4393 22.4992L30.5175 22.3344L30.5933 22.1695L30.6679 22.0022L30.7401 21.835L30.8099 21.6665L30.8773 21.4968L30.9435 21.3259L31.0085 21.1539L31.0698 20.9818L31.13 20.8085L31.1878 20.634L31.2443 20.4583L31.2973 20.2814L31.349 20.1045L31.3984 19.9264L31.4465 19.7471L31.491 19.5666L31.5343 19.3861L31.5753 19.2044L31.6138 19.0215L31.6499 18.8386L31.6848 18.6545L31.716 18.4692L31.7461 18.2839L31.7726 18.0973L31.7979 17.9096L31.8207 17.7219L31.8412 17.533L31.8592 17.344L31.8749 17.1539L31.8881 16.9626L31.899 16.7712L31.9074 16.5799L31.9134 16.3874L31.917 16.1936L31.9182 15.9999L31.917 15.8049L31.9134 15.6124L31.9074 15.4199L31.899 15.2273L31.8881 15.036L31.8749 14.8446L31.8592 14.6545L31.8412 14.4656L31.8207 14.2767L31.7979 14.0889L31.7726 13.9024L31.7461 13.7159L31.716 13.5294L31.6848 13.3453L31.6499 13.1611L31.6138 12.977L31.5753 12.7953L31.5343 12.6136L31.491 12.4319L31.4465 12.2526L31.3984 12.0733L31.349 11.8952L31.2973 11.7171L31.2443 11.5414L31.1878 11.3657L31.13 11.1912L31.0698 11.0168L31.0085 10.8447L30.9435 10.6726L30.8773 10.5017L30.8099 10.332L30.7401 10.1636L30.6679 9.99631L30.5933 9.83025L30.5175 9.66418L30.4393 9.49932L30.3587 9.33687L30.2768 9.17442L30.1938 9.01317L30.1072 8.85312L30.0205 8.69428L29.9303 8.53664L29.84 8.3802L29.7461 8.22497L29.6511 8.07094L29.5548 7.91811L29.4561 7.76649L29.3563 7.61607L29.254 7.46685L29.1505 7.32004L29.0446 7.17323L28.9375 7.02762L28.8292 6.88442L28.7185 6.74122L28.6054 6.60043L28.4922 6.46084L28.3767 6.32245L28.2588 6.18647L28.1409 6.05049L28.0205 5.91692L27.8978 5.78335L27.775 5.65339L27.6499 5.52342L27.5235 5.39466L27.3948 5.26831L27.2648 5.14316L27.1349 5.02042L27.0013 4.89768L26.8677 4.77734L26.7317 4.65941L26.5958 4.54148L26.4574 4.42596L26.3178 4.31284L26.1758 4.19973L26.0338 4.08902L25.8906 3.98071L25.745 3.87362L25.5982 3.76772L25.4514 3.66423L25.3021 3.56195L25.1517 3.46207L25.0001 3.36339L24.8473 3.26712L24.6932 3.17206L24.538 3.07819L24.3816 2.98794L24.2239 2.89769L24.0651 2.81105L23.905 2.72441L23.7438 2.64138L23.5813 2.55955L23.4189 2.47892L23.254 2.4007L23.088 2.32489L22.9219 2.25028L22.7546 2.17808L22.5862 2.10829L22.4165 2.0409L22.2456 1.97471L22.0735 1.90973L21.9014 1.84836L21.727 1.78819L21.5525 1.73043L21.3768 1.67387L21.2011 1.62093L21.023 1.56918L20.8449 1.51984L20.6656 1.47171L20.4863 1.42718L20.3046 1.38386L20.1229 1.34295L19.9412 1.30444L19.7571 1.26834L19.5729 1.23344L19.3888 1.20216L19.2023 1.17207L19.0158 1.1456L18.8293 1.12033L18.6415 1.09746L18.4526 1.07701L18.2637 1.05896L18.0736 1.04331L17.8822 1.03008L17.6909 1.01925L17.4984 1.01082L17.3058 1.00481L17.1133 1.0012L16.9183 0.999992L16.7246 1.0012Z" fill="#666D89"/>
<path d="M23.9185 11.4204C23.4031 11.6615 22.8497 11.8242 22.2686 11.8975C22.8619 11.5226 23.3172 10.9288 23.5318 10.2215C22.9767 10.5685 22.3619 10.8208 21.7078 10.9566C21.1837 10.3677 20.4372 10 19.6112 10C18.0249 10 16.7389 11.3564 16.7389 13.0292C16.7389 13.2667 16.7642 13.4979 16.8133 13.7195C14.4263 13.5934 12.3093 12.3872 10.893 10.5544C10.6457 11.002 10.504 11.5223 10.504 12.0775C10.504 13.1284 11.0111 14.0554 11.7817 14.5989C11.3112 14.5831 10.868 14.447 10.4807 14.2201C10.4804 14.2326 10.4804 14.2453 10.4804 14.2581C10.4804 15.7259 11.4708 16.9503 12.7845 17.2284C12.5438 17.2978 12.2899 17.335 12.0277 17.335C11.8428 17.335 11.6631 17.3159 11.4875 17.2806C11.853 18.484 12.9142 19.36 14.1707 19.3842C13.1875 20.197 11.9494 20.6812 10.6035 20.6812C10.3718 20.6812 10.1432 20.6668 9.91846 20.6385C11.1894 21.4983 12.6988 22 14.3215 22C19.6043 22 22.4937 17.3836 22.4937 13.3804C22.4937 13.2494 22.4909 13.1186 22.4853 12.9884C23.0465 12.5615 23.5333 12.028 23.9185 11.4204Z" fill="#666D89"/>
</g>
<defs>
<clipPath id="clip0">
<rect width="32" height="32" fill="white" transform="translate(0.918457)"/>
</clipPath>
</defs>
</svg>
