<svg width="375" height="71" viewBox="0 0 375 71" fill="none" xmlns="http://www.w3.org/2000/svg">
<rect y="49.6526" width="375" height="3.34737" fill="#323746"/>
<rect width="375" height="71" fill="#2D303A"/>
<path fill-rule="evenodd" clip-rule="evenodd" d="M21 27.2C21 26.5373 21.5373 26 22.2 26H44.8C45.4627 26 46 26.5373 46 27.2C46 27.8627 45.4627 28.4 44.8 28.4H22.2C21.5373 28.4 21 27.8627 21 27.2ZM21 36C21 35.3373 21.5373 34.8 22.2 34.8H44.8C45.4627 34.8 46 35.3373 46 36C46 36.6627 45.4627 37.2 44.8 37.2H22.2C21.5373 37.2 21 36.6627 21 36ZM22.2 43.6C21.5373 43.6 21 44.1373 21 44.8C21 45.4627 21.5373 46 22.2 46H44.8C45.4627 46 46 45.4627 46 44.8C46 44.1373 45.4627 43.6 44.8 43.6H22.2Z" fill="white"/>
<path d="M157.165 32.3548C157.086 32.4927 157 32.5944 156.909 32.66C156.823 32.7191 156.715 32.7486 156.584 32.7486C156.446 32.7486 156.295 32.6994 156.131 32.6009C155.973 32.4959 155.783 32.3811 155.56 32.2564C155.337 32.1317 155.074 32.0202 154.773 31.9217C154.477 31.8167 154.126 31.7642 153.719 31.7642C153.352 31.7642 153.03 31.8102 152.755 31.902C152.479 31.9873 152.246 32.1087 152.056 32.2662C151.872 32.4237 151.734 32.6141 151.642 32.8372C151.55 33.0537 151.504 33.2933 151.504 33.5558C151.504 33.8905 151.596 34.1694 151.78 34.3925C151.97 34.6156 152.22 34.8059 152.528 34.9634C152.837 35.1209 153.188 35.262 153.581 35.3867C153.975 35.5114 154.379 35.6459 154.792 35.7903C155.206 35.9281 155.609 36.0922 156.003 36.2825C156.397 36.4662 156.748 36.7025 157.056 36.9912C157.365 37.2734 157.611 37.6212 157.795 38.0347C157.985 38.4481 158.08 38.9502 158.08 39.5408C158.08 40.1839 157.968 40.7877 157.745 41.352C157.529 41.9098 157.207 42.3987 156.781 42.8187C156.361 43.2322 155.845 43.5603 155.235 43.8031C154.625 44.0394 153.926 44.1575 153.138 44.1575C152.686 44.1575 152.239 44.1116 151.8 44.0197C151.36 43.9344 150.937 43.8097 150.53 43.6456C150.13 43.4816 149.752 43.2847 149.398 43.055C149.043 42.8253 148.728 42.5694 148.453 42.2872L149.23 41.0173C149.296 40.9255 149.381 40.85 149.486 40.7909C149.591 40.7253 149.703 40.6925 149.821 40.6925C149.985 40.6925 150.162 40.7614 150.353 40.8992C150.543 41.0305 150.769 41.1781 151.032 41.3422C151.294 41.5062 151.6 41.6572 151.947 41.795C152.302 41.9262 152.725 41.9919 153.217 41.9919C153.972 41.9919 154.556 41.8147 154.969 41.4603C155.383 41.0994 155.59 40.5842 155.59 39.9148C155.59 39.5408 155.494 39.2356 155.304 38.9994C155.12 38.7631 154.874 38.5662 154.566 38.4087C154.257 38.2447 153.906 38.1069 153.513 37.9953C153.119 37.8837 152.718 37.7623 152.312 37.6311C151.905 37.4998 151.504 37.3423 151.111 37.1586C150.717 36.9748 150.366 36.7353 150.057 36.44C149.749 36.1447 149.5 35.7772 149.309 35.3375C149.125 34.8912 149.034 34.3433 149.034 33.6936C149.034 33.1752 149.135 32.6698 149.339 32.1777C149.549 31.6855 149.851 31.2491 150.244 30.8684C150.638 30.4878 151.124 30.1827 151.701 29.953C152.279 29.7233 152.942 29.6084 153.69 29.6084C154.53 29.6084 155.304 29.7397 156.013 30.0022C156.722 30.2647 157.325 30.6322 157.824 31.1047L157.165 32.3548ZM162.457 44H159.799V29.7659H162.457V44ZM166.441 29.7659C166.553 29.7659 166.648 29.7725 166.727 29.7856C166.812 29.7922 166.884 29.8119 166.943 29.8447C167.009 29.8709 167.071 29.9136 167.13 29.9727C167.189 30.0252 167.255 30.0973 167.327 30.1892L174.789 39.718C174.769 39.4883 174.753 39.2619 174.74 39.0387C174.726 38.8156 174.72 38.6089 174.72 38.4186V29.7659H177.053V44H175.694C175.484 44 175.307 43.9672 175.163 43.9016C175.025 43.8294 174.891 43.7112 174.759 43.5472L167.327 34.0677C167.347 34.2777 167.36 34.4877 167.367 34.6977C167.38 34.9011 167.386 35.0881 167.386 35.2587V44H165.053V29.7659H166.441ZM191.366 42.6219C190.644 43.1534 189.873 43.5439 189.053 43.7933C188.239 44.0361 187.366 44.1575 186.434 44.1575C185.273 44.1575 184.219 43.977 183.274 43.6161C182.336 43.2552 181.532 42.7531 180.863 42.11C180.2 41.4669 179.688 40.6991 179.327 39.8066C178.966 38.9141 178.786 37.9395 178.786 36.883C178.786 35.8133 178.959 34.8322 179.307 33.9397C179.655 33.0472 180.147 32.2794 180.784 31.6362C181.427 30.9931 182.205 30.4944 183.117 30.14C184.029 29.7856 185.053 29.6084 186.188 29.6084C186.766 29.6084 187.304 29.6544 187.802 29.7462C188.308 29.8381 188.774 29.9661 189.2 30.1302C189.633 30.2877 190.027 30.4812 190.381 30.7109C190.736 30.9406 191.061 31.1933 191.356 31.4689L190.598 32.6698C190.48 32.8602 190.326 32.9783 190.135 33.0242C189.945 33.0636 189.738 33.0144 189.515 32.8766C189.299 32.7519 189.082 32.6272 188.866 32.5025C188.649 32.3778 188.406 32.2695 188.137 32.1777C187.875 32.0858 187.576 32.0103 187.241 31.9512C186.913 31.8922 186.533 31.8627 186.099 31.8627C185.397 31.8627 184.761 31.9808 184.19 32.217C183.625 32.4533 183.143 32.7912 182.743 33.2309C182.342 33.6706 182.034 34.1989 181.817 34.8158C181.601 35.4327 181.493 36.1217 181.493 36.883C181.493 37.6967 181.607 38.4252 181.837 39.0683C182.073 39.7048 182.401 40.2462 182.821 40.6925C183.248 41.1322 183.76 41.4702 184.357 41.7064C184.954 41.9361 185.62 42.0509 186.355 42.0509C186.88 42.0509 187.35 41.9984 187.763 41.8934C188.176 41.7819 188.58 41.6309 188.974 41.4406V38.8517H187.182C187.012 38.8517 186.877 38.8058 186.779 38.7139C186.687 38.6155 186.641 38.4973 186.641 38.3595V36.8633H191.366V42.6219ZM206.901 36.883C206.901 37.9264 206.727 38.8944 206.379 39.7869C206.038 40.6728 205.552 41.4406 204.922 42.0903C204.292 42.74 203.534 43.2486 202.649 43.6161C201.763 43.977 200.778 44.1575 199.695 44.1575C198.619 44.1575 197.638 43.977 196.752 43.6161C195.866 43.2486 195.105 42.74 194.468 42.0903C193.838 41.4406 193.349 40.6728 193.002 39.7869C192.654 38.8944 192.48 37.9264 192.48 36.883C192.48 35.8395 192.654 34.8748 193.002 33.9889C193.349 33.0964 193.838 32.3253 194.468 31.6756C195.105 31.0259 195.866 30.5206 196.752 30.1597C197.638 29.7922 198.619 29.6084 199.695 29.6084C200.417 29.6084 201.096 29.6937 201.733 29.8644C202.37 30.0284 202.954 30.2647 203.485 30.5731C204.017 30.875 204.493 31.2458 204.913 31.6855C205.339 32.1186 205.7 32.6042 205.995 33.1423C206.291 33.6805 206.514 34.2645 206.665 34.8945C206.822 35.5245 206.901 36.1873 206.901 36.883ZM204.194 36.883C204.194 36.102 204.089 35.4031 203.879 34.7862C203.669 34.1628 203.37 33.6345 202.983 33.2014C202.596 32.7683 202.124 32.4369 201.566 32.2072C201.014 31.9775 200.391 31.8627 199.695 31.8627C199 31.8627 198.373 31.9775 197.815 32.2072C197.264 32.4369 196.791 32.7683 196.398 33.2014C196.011 33.6345 195.712 34.1628 195.502 34.7862C195.292 35.4031 195.187 36.102 195.187 36.883C195.187 37.6639 195.292 38.3661 195.502 38.9895C195.712 39.6064 196.011 40.1314 196.398 40.5645C196.791 40.9911 197.264 41.3192 197.815 41.5489C198.373 41.7786 199 41.8934 199.695 41.8934C200.391 41.8934 201.014 41.7786 201.566 41.5489C202.124 41.3192 202.596 40.9911 202.983 40.5645C203.37 40.1314 203.669 39.6064 203.879 38.9895C204.089 38.3661 204.194 37.6639 204.194 36.883ZM211.284 41.8147H216.973V44H208.636V29.7659H211.284V41.8147ZM231.348 36.883C231.348 37.9264 231.174 38.8944 230.826 39.7869C230.485 40.6728 230 41.4406 229.37 42.0903C228.74 42.74 227.982 43.2486 227.096 43.6161C226.21 43.977 225.225 44.1575 224.142 44.1575C223.066 44.1575 222.085 43.977 221.199 43.6161C220.313 43.2486 219.552 42.74 218.915 42.0903C218.285 41.4406 217.797 40.6728 217.449 39.7869C217.101 38.8944 216.927 37.9264 216.927 36.883C216.927 35.8395 217.101 34.8748 217.449 33.9889C217.797 33.0964 218.285 32.3253 218.915 31.6756C219.552 31.0259 220.313 30.5206 221.199 30.1597C222.085 29.7922 223.066 29.6084 224.142 29.6084C224.864 29.6084 225.544 29.6937 226.18 29.8644C226.817 30.0284 227.401 30.2647 227.932 30.5731C228.464 30.875 228.94 31.2458 229.36 31.6855C229.786 32.1186 230.147 32.6042 230.442 33.1423C230.738 33.6805 230.961 34.2645 231.112 34.8945C231.269 35.5245 231.348 36.1873 231.348 36.883ZM228.641 36.883C228.641 36.102 228.536 35.4031 228.326 34.7862C228.116 34.1628 227.817 33.6345 227.43 33.2014C227.043 32.7683 226.571 32.4369 226.013 32.2072C225.462 31.9775 224.838 31.8627 224.142 31.8627C223.447 31.8627 222.82 31.9775 222.262 32.2072C221.711 32.4369 221.239 32.7683 220.845 33.2014C220.458 33.6345 220.159 34.1628 219.949 34.7862C219.739 35.4031 219.634 36.102 219.634 36.883C219.634 37.6639 219.739 38.3661 219.949 38.9895C220.159 39.6064 220.458 40.1314 220.845 40.5645C221.239 40.9911 221.711 41.3192 222.262 41.5489C222.82 41.7786 223.447 41.8934 224.142 41.8934C224.838 41.8934 225.462 41.7786 226.013 41.5489C226.571 41.3192 227.043 40.9911 227.43 40.5645C227.817 40.1314 228.116 39.6064 228.326 38.9895C228.536 38.3661 228.641 37.6639 228.641 36.883Z" fill="white"/>
<path d="M235.101 35.7608V33.9594C235.101 33.8281 235.107 33.7002 235.121 33.5755C235.14 33.4508 235.17 33.3327 235.209 33.2211C235.137 33.313 235.052 33.395 234.953 33.4672C234.855 33.5394 234.75 33.6116 234.638 33.6837L233.083 34.5894L232.502 33.605L234.067 32.6994C234.185 32.6272 234.3 32.5681 234.412 32.5222C234.53 32.4762 234.651 32.4434 234.776 32.4238C234.533 32.3975 234.297 32.3023 234.067 32.1383L232.502 31.2228L233.073 30.2384L234.638 31.1637C234.75 31.2359 234.855 31.3114 234.953 31.3902C235.058 31.4623 235.147 31.5444 235.219 31.6362C235.173 31.5247 235.14 31.4066 235.121 31.2819C235.107 31.1572 235.101 31.0292 235.101 30.898V29.0769H236.262V30.8783C236.262 31.0161 236.253 31.1506 236.233 31.2819C236.22 31.4066 236.19 31.5247 236.144 31.6362C236.217 31.5444 236.302 31.4623 236.4 31.3902C236.499 31.3114 236.607 31.2359 236.725 31.1637L238.28 30.2581L238.861 31.2425L237.296 32.1383C237.178 32.2105 237.06 32.2728 236.942 32.3253C236.83 32.3712 236.712 32.4041 236.587 32.4238C236.81 32.4631 237.047 32.555 237.296 32.6994L238.861 33.6148L238.29 34.5992L236.725 33.6837C236.607 33.6116 236.499 33.5394 236.4 33.4672C236.302 33.395 236.213 33.313 236.134 33.2211C236.22 33.4311 236.262 33.6739 236.262 33.9495V35.7608H235.101Z" fill="#F06C64"/>
</svg>
