<svg width="60" height="61" viewBox="0 0 60 61" fill="none" xmlns="http://www.w3.org/2000/svg">
<g clip-path="url(#clip0)">
<path fill-rule="evenodd" clip-rule="evenodd" d="M30.3875 0.109212L30.5807 0.112262L30.9672 0.122432L31.3516 0.136669L31.5438 0.145822L31.9261 0.168195L32.1173 0.180398L32.3085 0.194635L32.4987 0.20989L32.6888 0.226161L32.878 0.243449L33.0672 0.261754L33.4444 0.302432L33.6326 0.324805L33.8207 0.348195L34.0088 0.372602L34.196 0.398025L34.3821 0.424466L34.7543 0.481415L34.9404 0.511924L35.1255 0.543449L35.3105 0.575992L35.4946 0.609551L35.6787 0.644127L35.8627 0.679721L36.0458 0.716331L36.2288 0.754975L36.4109 0.793619L36.7749 0.874975L36.956 0.917687L37.137 0.961416L37.317 1.00616L37.497 1.05192L37.677 1.0987L37.856 1.1465L38.035 1.19531L38.2129 1.24514L38.3909 1.29599L38.7448 1.40176L38.9207 1.45565L39.2726 1.56752L39.4475 1.62548L39.6214 1.68345L39.9692 1.80345L40.315 1.92752L40.6587 2.05565L41.0004 2.18786L41.34 2.32413L41.6777 2.46447L41.8455 2.53667L42.0122 2.60888L42.18 2.68311L42.3458 2.75735L42.5116 2.8326L42.6773 2.90989L42.8421 2.98718L43.0058 3.06549L43.1695 3.14481L43.3333 3.22515L43.495 3.3065L43.6577 3.38888L43.8184 3.47227L43.98 3.55667L44.1397 3.6421L44.459 3.81498L44.6177 3.90345L44.7753 3.99193L44.9329 4.08142L45.0895 4.17294L45.2451 4.26447L45.4007 4.35701L45.5563 4.45057L45.7099 4.54515L45.8645 4.63972L46.017 4.73633L46.1695 4.83396L46.3211 4.93159L46.4726 5.03023L46.6231 5.12989L46.7736 5.23057L46.9221 5.33227L47.0716 5.43498L47.219 5.53769L47.3665 5.64244L47.5129 5.74718L47.6594 5.85295L47.8048 5.95973L48.0936 6.17532L48.237 6.28515L48.3794 6.39498L48.5217 6.50583L48.6631 6.61769L48.9438 6.84346L49.0831 6.95735L49.2214 7.07329L49.496 7.30515L49.7685 7.54108L49.9038 7.66007L50.038 7.78007L50.3045 8.0221L50.5678 8.26719L50.698 8.39125L50.8282 8.51634L50.9573 8.64142L51.0855 8.76752L51.2136 8.89464L51.3397 9.02176L51.4658 9.1499L51.5909 9.27905L51.716 9.40922L51.8401 9.53939L52.0851 9.80278L52.3272 10.0692L52.4472 10.2035L52.5662 10.3387L52.8021 10.6113L53.034 10.8858L53.1499 11.0241L53.2638 11.1635L53.4895 11.4441L53.6014 11.5855L53.7123 11.7279L53.8221 11.8702L53.9319 12.0136L54.1475 12.3024L54.2543 12.4479L54.3601 12.5943L54.4648 12.7408L54.5695 12.8882L54.6723 13.0357L54.775 13.1852L54.8767 13.3336L54.9773 13.4841L55.077 13.6346L55.1756 13.7862L55.2733 13.9377L55.3709 14.0902L55.4675 14.2428L55.5621 14.3974L55.6567 14.5509L55.7502 14.7065L55.8428 14.8621L55.9343 15.0177L56.0258 15.1743L56.1153 15.3319L56.2038 15.4896L56.2923 15.6482L56.4651 15.9675L56.5506 16.1272L56.635 16.2889L56.7184 16.4496L56.8007 16.6123L56.8821 16.774L56.9624 16.9377L57.0418 17.1014L57.1201 17.2652L57.1973 17.4299L57.2746 17.5957L57.3499 17.7614L57.4241 17.9272L57.4984 18.095L57.5706 18.2618L57.6428 18.4296L57.7831 18.7672L57.9194 19.1069L58.0516 19.4486L58.1797 19.7923L58.3038 20.138L58.4238 20.4858L58.4818 20.6597L58.5397 20.8347L58.6516 21.1865L58.7055 21.3625L58.8112 21.7164L58.8621 21.8943L58.9119 22.0723L58.9607 22.2513L59.0085 22.4303L59.0553 22.6103L59.1011 22.7903L59.1458 22.9703L59.1896 23.1513L59.2323 23.3323L59.3136 23.6964L59.3523 23.8784L59.3909 24.0614L59.4275 24.2445L59.4631 24.4286L59.4977 24.6126L59.5312 24.7967L59.5638 24.9818L59.5953 25.1669L59.6258 25.353L59.6828 25.7252L59.7092 25.9113L59.7346 26.0984L59.759 26.2865L59.7824 26.4747L59.8048 26.6628L59.8455 27.0401L59.8638 27.2292L59.8811 27.4184L59.8974 27.6086L59.9126 27.7987L59.9268 27.9899L59.939 28.1811L59.9614 28.5635L59.9706 28.7557L59.9848 29.1401L59.995 29.5265L59.998 29.7197L60.0001 30.1072L59.998 30.4947L59.995 30.6879L59.9848 31.0743L59.9706 31.4587L59.9614 31.6509L59.939 32.0333L59.9268 32.2245L59.9126 32.4157L59.8974 32.6059L59.8811 32.796L59.8638 32.9852L59.8455 33.1743L59.8048 33.5516L59.7824 33.7397L59.759 33.9279L59.7346 34.116L59.7092 34.3031L59.6828 34.4892L59.6258 34.8614L59.5953 35.0476L59.5638 35.2326L59.5312 35.4177L59.4977 35.6018L59.4631 35.7859L59.4275 35.9699L59.3909 36.153L59.3523 36.336L59.3136 36.5181L59.2323 36.8821L59.1896 37.0631L59.1458 37.2442L59.1011 37.4242L59.0553 37.6042L59.0085 37.7842L58.9607 37.9631L58.9119 38.1421L58.8621 38.3201L58.8112 38.4981L58.7055 38.852L58.6516 39.0279L58.5397 39.3798L58.4818 39.5547L58.4238 39.7286L58.3038 40.0764L58.1797 40.4221L58.0516 40.7659L57.9194 41.1076L57.7831 41.4472L57.6428 41.7848L57.5706 41.9526L57.4984 42.1194L57.4241 42.2872L57.3499 42.453L57.2746 42.6187L57.1973 42.7845L57.1201 42.9492L57.0418 43.113L56.9624 43.2767L56.8821 43.4404L56.8007 43.6021L56.7184 43.7648L56.635 43.9255L56.5506 44.0872L56.4651 44.2469L56.2923 44.5662L56.2038 44.7248L56.1153 44.8825L56.0258 45.0401L55.9343 45.1967L55.8428 45.3523L55.7502 45.5079L55.6567 45.6635L55.5621 45.8171L55.4675 45.9716L55.3709 46.1242L55.2733 46.2767L55.1756 46.4282L55.077 46.5798L54.9773 46.7303L54.8767 46.8808L54.775 47.0293L54.6723 47.1787L54.5695 47.3262L54.4648 47.4737L54.3601 47.6201L54.2543 47.7665L54.1475 47.912L53.9319 48.2008L53.8221 48.3442L53.7123 48.4865L53.6014 48.6289L53.4895 48.7703L53.2638 49.051L53.1499 49.1903L53.034 49.3286L52.8021 49.6032L52.5662 49.8757L52.4472 50.011L52.3272 50.1452L52.0851 50.4116L51.8401 50.675L51.716 50.8052L51.5909 50.9354L51.4658 51.0645L51.2136 51.3208L50.9573 51.573L50.8282 51.6981L50.698 51.8232L50.5678 51.9472L50.3045 52.1923L50.038 52.4343L49.9038 52.5544L49.7685 52.6733L49.496 52.9093L49.2214 53.1411L49.0831 53.2571L48.9438 53.371L48.6631 53.5967L48.5217 53.7086L48.3794 53.8194L48.237 53.9293L48.0936 54.0391L47.8048 54.2547L47.6594 54.3615L47.5129 54.4672L47.3665 54.572L47.219 54.6767L47.0716 54.7794L46.9221 54.8821L46.7736 54.9838L46.6231 55.0845L46.4726 55.1842L46.3211 55.2828L46.1695 55.3805L46.017 55.4781L45.8645 55.5747L45.7099 55.6693L45.5563 55.7638L45.4007 55.8574L45.2451 55.9499L45.0895 56.0415L44.9329 56.133L44.7753 56.2225L44.6177 56.311L44.459 56.3994L44.1397 56.5723L43.98 56.6577L43.8184 56.7421L43.6577 56.8255L43.495 56.9079L43.3333 56.9893L43.1695 57.0696L43.0058 57.1489L42.8421 57.2272L42.6773 57.3045L42.5116 57.3818L42.3458 57.4571L42.18 57.5313L42.0122 57.6055L41.8455 57.6777L41.6777 57.7499L41.34 57.8903L41.0004 58.0266L40.6587 58.1588L40.315 58.2869L39.9692 58.411L39.6214 58.531L39.4475 58.5889L39.2726 58.6469L38.9207 58.7588L38.7448 58.8127L38.3909 58.9184L38.2129 58.9693L38.035 59.0191L37.856 59.0679L37.677 59.1157L37.497 59.1625L37.317 59.2083L37.137 59.253L36.956 59.2967L36.7749 59.3394L36.4109 59.4208L36.2288 59.4594L36.0458 59.4981L35.8627 59.5347L35.6787 59.5703L35.4946 59.6049L35.3105 59.6384L35.1255 59.671L34.9404 59.7025L34.7543 59.733L34.3821 59.7899L34.196 59.8164L34.0088 59.8418L33.8207 59.8662L33.6326 59.8896L33.4444 59.912L33.0672 59.9527L32.878 59.971L32.6888 59.9883L32.4987 60.0045L32.3085 60.0198L32.1173 60.034L31.9261 60.0462L31.5438 60.0686L31.3516 60.0777L30.9672 60.092L30.5807 60.1021L30.3875 60.1052L30 60.1072L29.6126 60.1052L29.4194 60.1021L29.0329 60.092L28.6485 60.0777L28.4563 60.0686L28.0739 60.0462L27.8827 60.034L27.6916 60.0198L27.5014 60.0045L27.3112 59.9883L27.1221 59.971L26.9329 59.9527L26.5556 59.912L26.3675 59.8896L26.1793 59.8662L25.9912 59.8418L25.8041 59.8164L25.618 59.7899L25.2458 59.733L25.0597 59.7025L24.8746 59.671L24.6895 59.6384L24.5054 59.6049L24.3214 59.5703L24.1373 59.5347L23.9543 59.4981L23.7712 59.4594L23.5892 59.4208L23.2251 59.3394L23.0441 59.2967L22.8631 59.253L22.6831 59.2083L22.5031 59.1625L22.3231 59.1157L22.1441 59.0679L21.9651 59.0191L21.7871 58.9693L21.6092 58.9184L21.2553 58.8127L21.0793 58.7588L20.7275 58.6469L20.5526 58.5889L20.3787 58.531L20.0309 58.411L19.6851 58.2869L19.3414 58.1588L18.9997 58.0266L18.66 57.8903L18.3224 57.7499L18.1546 57.6777L17.9878 57.6055L17.82 57.5313L17.6543 57.4571L17.4885 57.3818L17.3227 57.3045L17.158 57.2272L16.9943 57.1489L16.8305 57.0696L16.6668 56.9893L16.5051 56.9079L16.3424 56.8255L16.1817 56.7421L16.02 56.6577L15.8604 56.5723L15.541 56.3994L15.3824 56.311L15.2248 56.2225L15.0671 56.133L14.9105 56.0415L14.7549 55.9499L14.5993 55.8574L14.4437 55.7638L14.2902 55.6693L14.1356 55.5747L13.9831 55.4781L13.8305 55.3805L13.679 55.2828L13.5275 55.1842L13.377 55.0845L13.2265 54.9838L13.078 54.8821L12.9285 54.7794L12.781 54.6767L12.6336 54.572L12.4871 54.4672L12.3407 54.3615L12.1953 54.2547L11.9065 54.0391L11.7631 53.9293L11.6207 53.8194L11.4783 53.7086L11.337 53.5967L11.0563 53.371L10.917 53.2571L10.7787 53.1411L10.5041 52.9093L10.2315 52.6733L10.0963 52.5544L9.96204 52.4343L9.6956 52.1923L9.43221 51.9472L9.30204 51.8232L9.17187 51.6981L9.04272 51.573L8.91458 51.4469L8.78747 51.3208L8.66035 51.1927L8.53425 51.0645L8.40916 50.9354L8.28408 50.8052L8.16001 50.675L7.91492 50.4116L7.67289 50.1452L7.55289 50.011L7.43391 49.8757L7.19797 49.6032L6.96611 49.3286L6.85018 49.1903L6.73628 49.051L6.51051 48.7703L6.39865 48.6289L6.2878 48.4865L6.17797 48.3442L6.06814 48.2008L5.85255 47.912L5.74577 47.7665L5.64001 47.6201L5.53526 47.4737L5.43051 47.3262L5.3278 47.1787L5.22509 47.0293L5.1234 46.8808L5.02272 46.7303L4.92306 46.5798L4.82441 46.4282L4.72678 46.2767L4.62916 46.1242L4.53255 45.9716L4.43797 45.8171L4.34339 45.6635L4.24983 45.5079L4.15729 45.3523L4.06577 45.1967L3.97424 45.0401L3.88475 44.8825L3.79627 44.7248L3.7078 44.5662L3.53492 44.2469L3.4495 44.0872L3.36509 43.9255L3.2817 43.7648L3.19933 43.6021L3.11797 43.4404L3.03763 43.2767L2.95831 43.113L2.88 42.9492L2.80271 42.7845L2.72543 42.6187L2.65017 42.453L2.57593 42.2872L2.5017 42.1194L2.42949 41.9526L2.35729 41.7848L2.21695 41.4472L2.08068 41.1076L1.94848 40.7659L1.82034 40.4221L1.69627 40.0764L1.57627 39.7286L1.51831 39.5547L1.46034 39.3798L1.34848 39.0279L1.29458 38.852L1.18881 38.4981L1.13797 38.3201L1.08814 38.1421L1.03932 37.9631L0.991526 37.7842L0.944747 37.6042L0.898984 37.4242L0.854238 37.2442L0.810509 37.0631L0.767797 36.8821L0.686441 36.5181L0.647797 36.336L0.609153 36.153L0.572543 35.9699L0.53695 35.7859L0.502373 35.6018L0.468814 35.4177L0.436272 35.2326L0.404746 35.0476L0.374238 34.8614L0.317288 34.4892L0.290848 34.3031L0.265424 34.116L0.241017 33.9279L0.217627 33.7397L0.195254 33.5516L0.154576 33.1743L0.136271 32.9852L0.118983 32.796L0.102712 32.6059L0.0874577 32.4157L0.0732204 32.2245L0.061017 32.0333L0.0386441 31.6509L0.0294916 31.4587L0.0152542 31.0743L0.00508475 30.6879L0.00203387 30.4947L0 30.1072L0.00203387 29.7197L0.00508475 29.5265L0.0152542 29.1401L0.0294916 28.7557L0.0386441 28.5635L0.061017 28.1811L0.0732204 27.9899L0.0874577 27.7987L0.102712 27.6086L0.118983 27.4184L0.136271 27.2292L0.154576 27.0401L0.195254 26.6628L0.217627 26.4747L0.241017 26.2865L0.265424 26.0984L0.290848 25.9113L0.317288 25.7252L0.374238 25.353L0.404746 25.1669L0.436272 24.9818L0.468814 24.7967L0.502373 24.6126L0.53695 24.4286L0.572543 24.2445L0.609153 24.0614L0.647797 23.8784L0.686441 23.6964L0.767797 23.3323L0.810509 23.1513L0.854238 22.9703L0.898984 22.7903L0.944747 22.6103L0.991526 22.4303L1.03932 22.2513L1.08814 22.0723L1.13797 21.8943L1.18881 21.7164L1.29458 21.3625L1.34848 21.1865L1.46034 20.8347L1.51831 20.6597L1.57627 20.4858L1.69627 20.138L1.82034 19.7923L1.94848 19.4486L2.08068 19.1069L2.21695 18.7672L2.35729 18.4296L2.42949 18.2618L2.5017 18.095L2.57593 17.9272L2.65017 17.7614L2.72543 17.5957L2.80271 17.4299L2.88 17.2652L2.95831 17.1014L3.03763 16.9377L3.11797 16.774L3.19933 16.6123L3.2817 16.4496L3.36509 16.2889L3.4495 16.1272L3.53492 15.9675L3.7078 15.6482L3.79627 15.4896L3.88475 15.3319L3.97424 15.1743L4.06577 15.0177L4.15729 14.8621L4.24983 14.7065L4.34339 14.5509L4.43797 14.3974L4.53255 14.2428L4.62916 14.0902L4.72678 13.9377L4.82441 13.7862L4.92306 13.6346L5.02272 13.4841L5.1234 13.3336L5.22509 13.1852L5.3278 13.0357L5.43051 12.8882L5.53526 12.7408L5.64001 12.5943L5.74577 12.4479L5.85255 12.3024L6.06814 12.0136L6.17797 11.8702L6.2878 11.7279L6.39865 11.5855L6.51051 11.4441L6.73628 11.1635L6.85018 11.0241L6.96611 10.8858L7.19797 10.6113L7.43391 10.3387L7.55289 10.2035L7.67289 10.0692L7.91492 9.80278L8.16001 9.53939L8.28408 9.40922L8.40916 9.27905L8.53425 9.1499L8.66035 9.02176L8.91458 8.76752L9.04272 8.64142L9.17187 8.51634L9.30204 8.39125L9.43221 8.26719L9.6956 8.0221L9.96204 7.78007L10.0963 7.66007L10.2315 7.54108L10.5041 7.30515L10.7787 7.07329L10.917 6.95735L11.0563 6.84346L11.337 6.61769L11.4783 6.50583L11.6207 6.39498L11.7631 6.28515L11.9065 6.17532L12.1953 5.95973L12.3407 5.85295L12.4871 5.74718L12.6336 5.64244L12.781 5.53769L12.9285 5.43498L13.078 5.33227L13.2265 5.23057L13.377 5.12989L13.5275 5.03023L13.679 4.93159L13.8305 4.83396L13.9831 4.73633L14.1356 4.63972L14.2902 4.54515L14.4437 4.45057L14.5993 4.35701L14.7549 4.26447L14.9105 4.17294L15.0671 4.08142L15.2248 3.99193L15.3824 3.90345L15.541 3.81498L15.8604 3.6421L16.02 3.55667L16.1817 3.47227L16.3424 3.38888L16.5051 3.3065L16.6668 3.22515L16.8305 3.14481L16.9943 3.06549L17.158 2.98718L17.3227 2.90989L17.4885 2.8326L17.6543 2.75735L17.82 2.68311L17.9878 2.60888L18.1546 2.53667L18.3224 2.46447L18.66 2.32413L18.9997 2.18786L19.3414 2.05565L19.6851 1.92752L20.0309 1.80345L20.3787 1.68345L20.5526 1.62548L20.7275 1.56752L21.0793 1.45565L21.2553 1.40176L21.6092 1.29599L21.7871 1.24514L21.9651 1.19531L22.1441 1.1465L22.3231 1.0987L22.5031 1.05192L22.6831 1.00616L22.8631 0.961416L23.0441 0.917687L23.2251 0.874975L23.5892 0.793619L23.7712 0.754975L23.9543 0.716331L24.1373 0.679721L24.3214 0.644127L24.5054 0.609551L24.6895 0.575992L24.8746 0.543449L25.0597 0.511924L25.2458 0.481415L25.618 0.424466L25.8041 0.398025L25.9912 0.372602L26.1793 0.348195L26.3675 0.324805L26.5556 0.302432L26.9329 0.261754L27.1221 0.243449L27.3112 0.226161L27.5014 0.20989L27.6916 0.194635L27.8827 0.180398L28.0739 0.168195L28.4563 0.145822L28.6485 0.136669L29.0329 0.122432L29.4194 0.112262L29.6126 0.109212L30 0.107178L30.3875 0.109212ZM29.638 2.14311L29.458 2.14616L29.277 2.15023L29.097 2.15532L28.918 2.16142L28.738 2.16854L28.38 2.18684L28.2021 2.19803L27.8461 2.22243L27.6692 2.23667L27.4912 2.25193L27.3143 2.2682L27.1383 2.28548L26.9624 2.30379L26.7865 2.32311L26.4356 2.36582L26.2607 2.3882L25.9119 2.43701L25.739 2.46345L25.3922 2.51837L25.2193 2.54786L24.8756 2.60888L24.7038 2.64142L24.5329 2.67498L24.3621 2.70955L24.1912 2.74515L24.0214 2.78074L23.8515 2.81837L23.6827 2.85701L23.5139 2.89667L23.3451 2.93735L23.1773 2.97904L23.0095 3.02176L22.8427 3.06549L22.6749 3.10921L22.5092 3.15498L22.3434 3.20176L22.1777 3.24955L22.0119 3.29837L21.8471 3.34718L21.6834 3.39803L21.356 3.50176L21.1932 3.55566L20.8678 3.66549L20.7061 3.72142L20.3848 3.83735L20.2241 3.89633L19.9048 4.01837L19.7461 4.0804L19.5875 4.14345L19.4298 4.20752L19.2722 4.27261L19.1156 4.33769L18.959 4.40481L18.8024 4.47294L18.6468 4.54108L18.4922 4.61023L18.1831 4.75261L18.0295 4.82481L17.877 4.89803L17.5719 5.0465L17.4204 5.12278L17.2698 5.19905L17.1193 5.27735L16.9698 5.35566L16.8204 5.43498L16.6709 5.51532L16.5234 5.59667L16.3749 5.67803L16.2285 5.76142L16.081 5.84481L15.9356 5.92922L15.7902 6.01566L15.6448 6.10108L15.5004 6.18854L15.3559 6.27701L15.2136 6.36549L15.0702 6.45498L14.9278 6.54549L14.7865 6.63701L14.5058 6.8221L14.3654 6.91566L14.2261 7.01125L14.0878 7.10583L13.9495 7.20244L13.8122 7.30007L13.6759 7.39769L13.5397 7.49634L13.4034 7.596L13.2692 7.69566L13.0007 7.89905L12.8675 8.00176L12.6031 8.20922L12.4719 8.31396L12.3417 8.41973L12.2115 8.52651L12.0824 8.63431L11.9542 8.7421L11.8261 8.85091L11.699 8.95973L11.4468 9.18142L11.3217 9.29329L11.1966 9.40617L11.0726 9.51905L10.9495 9.63295L10.8275 9.74786L10.7054 9.8638L10.5844 9.97973L10.4634 10.0967L10.3444 10.2136L10.1065 10.4516L9.9895 10.5706L9.87255 10.6916L9.75662 10.8126L9.64069 10.9346L9.52577 11.0567L9.41187 11.1797L9.29899 11.3038L9.18611 11.4289L9.07425 11.554L8.85255 11.8062L8.74374 11.9333L8.63492 12.0614L8.52713 12.1896L8.41933 12.3187L8.31255 12.4489L8.20679 12.5791L8.10204 12.7102L7.89458 12.9746L7.79187 13.1079L7.58848 13.3763L7.48882 13.5106L7.38916 13.6469L7.29052 13.7831L7.19289 13.9194L7.09526 14.0567L6.99865 14.195L6.90407 14.3333L6.80848 14.4726L6.71492 14.613L6.52984 14.8936L6.43831 15.035L6.3478 15.1774L6.25831 15.3208L6.16984 15.4631L6.08136 15.6075L5.9939 15.7519L5.90848 15.8974L5.82204 16.0428L5.73763 16.1882L5.65424 16.3357L5.57085 16.4821L5.4895 16.6306L5.40814 16.778L5.3278 16.9275L5.24848 17.077L5.17018 17.2265L5.09187 17.377L5.0156 17.5275L4.93933 17.6791L4.79085 17.9841L4.71763 18.1367L4.64543 18.2902L4.50306 18.5994L4.4339 18.754L4.36577 18.9096L4.29763 19.0662L4.23051 19.2228L4.16543 19.3794L4.10034 19.537L4.03627 19.6947L3.97322 19.8533L3.91119 20.0119L3.78916 20.3313L3.73017 20.4919L3.61424 20.8133L3.55831 20.975L3.44848 21.3004L3.39458 21.4631L3.29085 21.7906L3.24 21.9543L3.19119 22.1191L3.14238 22.2848L3.09458 22.4506L3.0478 22.6164L3.00204 22.7821L2.95831 22.9499L2.91458 23.1167L2.87187 23.2845L2.83017 23.4523L2.78949 23.6211L2.74983 23.7899L2.71119 23.9587L2.67356 24.1286L2.63797 24.2984L2.60238 24.4692L2.5678 24.6401L2.53424 24.8109L2.5017 24.9828L2.44068 25.3265L2.41119 25.4994L2.35627 25.8462L2.32983 26.0191L2.28102 26.3679L2.25865 26.5428L2.21593 26.8936L2.19661 27.0696L2.17831 27.2455L2.16102 27.4214L2.14475 27.5984L2.12949 27.7764L2.11526 27.9533L2.09085 28.3092L2.07966 28.4872L2.06136 28.8452L2.05424 29.0252L2.04814 29.2042L2.04305 29.3842L2.03899 29.5652L2.03593 29.7452L2.0339 30.1072L2.03593 30.4692L2.03899 30.6492L2.04305 30.8303L2.04814 31.0103L2.05424 31.1892L2.06136 31.3692L2.07966 31.7272L2.09085 31.9052L2.11526 32.2611L2.12949 32.4381L2.14475 32.616L2.16102 32.793L2.17831 32.9689L2.19661 33.1448L2.21593 33.3208L2.25865 33.6716L2.28102 33.8465L2.32983 34.1953L2.35627 34.3682L2.41119 34.715L2.44068 34.8879L2.5017 35.2316L2.53424 35.4035L2.5678 35.5743L2.60238 35.7452L2.63797 35.916L2.67356 36.0859L2.71119 36.2557L2.74983 36.4245L2.78949 36.5933L2.83017 36.7621L2.87187 36.9299L2.91458 37.0977L2.95831 37.2645L3.00204 37.4323L3.0478 37.5981L3.09458 37.7638L3.14238 37.9296L3.19119 38.0953L3.24 38.2601L3.29085 38.4238L3.39458 38.7513L3.50238 39.0767L3.55831 39.2394L3.61424 39.4011L3.73017 39.7225L3.78916 39.8831L3.91119 40.2025L3.97322 40.3611L4.03627 40.5198L4.10034 40.6774L4.16543 40.835L4.23051 40.9916L4.29763 41.1482L4.36577 41.3048L4.4339 41.4604L4.50306 41.615L4.64543 41.9242L4.71763 42.0777L4.79085 42.2303L4.93933 42.5354L5.0156 42.6869L5.09187 42.8374L5.17018 42.9879L5.24848 43.1374L5.3278 43.2869L5.40814 43.4364L5.4895 43.5838L5.57085 43.7323L5.65424 43.8787L5.73763 44.0262L5.82204 44.1716L5.90848 44.317L5.9939 44.4625L6.08136 44.6069L6.16984 44.7513L6.25831 44.8937L6.3478 45.037L6.43831 45.1794L6.52984 45.3208L6.71492 45.6015L6.80848 45.7418L6.90407 45.8811L6.99865 46.0194L7.09526 46.1577L7.19289 46.295L7.29052 46.4313L7.38916 46.5676L7.48882 46.7038L7.58848 46.8381L7.79187 47.1065L7.89458 47.2398L8.10204 47.5042L8.20679 47.6354L8.31255 47.7655L8.41933 47.8957L8.52713 48.0248L8.63492 48.153L8.74374 48.2811L8.85255 48.4082L9.07425 48.6604L9.18611 48.7855L9.29899 48.9106L9.41187 49.0347L9.52577 49.1577L9.64069 49.2798L9.75662 49.4018L9.87255 49.5228L9.9895 49.6438L10.1065 49.7628L10.3444 50.0008L10.4634 50.1177L10.5844 50.2347L10.7054 50.3506L10.8275 50.4665L10.9495 50.5815L11.0726 50.6954L11.1966 50.8082L11.3217 50.9211L11.4468 51.033L11.5729 51.1438L11.699 51.2537L11.8261 51.3635L11.9542 51.4723L12.0824 51.5801L12.2115 51.6879L12.3417 51.7947L12.4719 51.9005L12.6031 52.0052L12.8675 52.2127L13.0007 52.3154L13.2692 52.5188L13.4034 52.6184L13.5397 52.7181L13.6759 52.8167L13.8122 52.9143L13.9495 53.012L14.0878 53.1086L14.2261 53.2032L14.3654 53.2988L14.5058 53.3923L14.7865 53.5774L14.9278 53.6689L15.0702 53.7594L15.2136 53.8489L15.3559 53.9374L15.5004 54.0259L15.6448 54.1133L15.7902 54.1988L15.9356 54.2852L16.081 54.3696L16.2285 54.453L16.3749 54.5364L16.5234 54.6177L16.6709 54.6991L16.8204 54.7794L16.9698 54.8588L17.1193 54.9371L17.2698 55.0154L17.4204 55.0916L17.5719 55.1679L17.877 55.3164L18.0295 55.3896L18.1831 55.4618L18.4922 55.6042L18.6468 55.6733L18.8024 55.7415L18.959 55.8096L19.1156 55.8767L19.2722 55.9418L19.4298 56.0069L19.5875 56.071L19.7461 56.134L19.9048 56.196L20.2241 56.3181L20.3848 56.3771L20.7061 56.493L20.8678 56.5489L21.1932 56.6588L21.356 56.7127L21.6834 56.8164L21.8471 56.8672L22.0119 56.916L22.1777 56.9649L22.3434 57.0127L22.5092 57.0594L22.6749 57.1052L22.8427 57.1489L23.0095 57.1927L23.1773 57.2354L23.3451 57.2771L23.5139 57.3177L23.6827 57.3574L23.8515 57.396L24.0214 57.4337L24.1912 57.4693L24.3621 57.5049L24.5329 57.5394L24.7038 57.573L24.8756 57.6055L25.2193 57.6666L25.3922 57.696L25.739 57.751L25.9119 57.7774L26.2607 57.8262L26.4356 57.8486L26.7865 57.8913L26.9624 57.9106L27.1383 57.9289L27.3143 57.9462L27.4912 57.9625L27.6692 57.9777L27.8461 57.992L28.2021 58.0164L28.38 58.0276L28.738 58.0459L28.918 58.053L29.097 58.0591L29.277 58.0642L29.458 58.0682L29.638 58.0713L30 58.0733L30.3621 58.0713L30.5421 58.0682L30.7231 58.0642L30.9031 58.0591L31.0821 58.053L31.2621 58.0459L31.62 58.0276L31.798 58.0164L32.1539 57.992L32.3309 57.9777L32.5088 57.9625L32.6858 57.9462L32.8617 57.9289L33.0377 57.9106L33.2136 57.8913L33.5644 57.8486L33.7394 57.8262L34.0882 57.7774L34.261 57.751L34.6078 57.696L34.7807 57.6666L35.1244 57.6055L35.2963 57.573L35.4672 57.5394L35.638 57.5049L35.8088 57.4693L35.9787 57.4337L36.1485 57.396L36.3173 57.3574L36.4861 57.3177L36.6549 57.2771L36.8227 57.2354L36.9905 57.1927L37.1573 57.1489L37.3251 57.1052L37.4909 57.0594L37.6566 57.0127L37.8224 56.9649L37.9882 56.916L38.1529 56.8672L38.3166 56.8164L38.6441 56.7127L38.8068 56.6588L39.1322 56.5489L39.2939 56.493L39.6153 56.3771L39.776 56.3181L40.0953 56.196L40.2539 56.134L40.4126 56.071L40.5702 56.0069L40.7278 55.9418L40.8844 55.8767L41.0411 55.8096L41.1977 55.7415L41.3533 55.6733L41.5078 55.6042L41.817 55.4618L41.9706 55.3896L42.1231 55.3164L42.4282 55.1679L42.5797 55.0916L42.7302 55.0154L42.8807 54.9371L43.0302 54.8588L43.1797 54.7794L43.3292 54.6991L43.4767 54.6177L43.6251 54.5364L43.7716 54.453L43.919 54.3696L44.0645 54.2852L44.2099 54.1988L44.3553 54.1133L44.4997 54.0259L44.6441 53.9374L44.7865 53.8489L44.9299 53.7594L45.0722 53.6689L45.2136 53.5774L45.4943 53.3923L45.6346 53.2988L45.7739 53.2032L45.9123 53.1086L46.0506 53.012L46.1878 52.9143L46.3241 52.8167L46.4604 52.7181L46.5967 52.6184L46.7309 52.5188L46.9994 52.3154L47.1326 52.2127L47.397 52.0052L47.5282 51.9005L47.6584 51.7947L47.7885 51.6879L47.9177 51.5801L48.0458 51.4723L48.1739 51.3635L48.3011 51.2537L48.4272 51.1438L48.5533 51.033L48.6784 50.9211L48.8034 50.8082L48.9275 50.6954L49.0506 50.5815L49.1726 50.4665L49.2946 50.3506L49.4156 50.2347L49.5367 50.1177L49.6556 50.0008L49.8936 49.7628L50.0106 49.6438L50.1275 49.5228L50.2434 49.4018L50.3594 49.2798L50.4743 49.1577L50.5882 49.0347L50.7011 48.9106L50.8139 48.7855L50.9258 48.6604L51.0367 48.5343L51.1465 48.4082L51.2563 48.2811L51.3651 48.153L51.4729 48.0248L51.5807 47.8957L51.6875 47.7655L51.7933 47.6354L51.898 47.5042L52.1055 47.2398L52.2082 47.1065L52.4116 46.8381L52.5112 46.7038L52.6109 46.5676L52.7095 46.4313L52.8072 46.295L52.9048 46.1577L53.0014 46.0194L53.096 45.8811L53.1916 45.7418L53.2851 45.6015L53.4702 45.3208L53.5617 45.1794L53.6523 45.037L53.7417 44.8937L53.8302 44.7513L53.9187 44.6069L54.0062 44.4625L54.0916 44.317L54.178 44.1716L54.2624 44.0262L54.3458 43.8787L54.4292 43.7323L54.5106 43.5838L54.5919 43.4364L54.6723 43.2869L54.7516 43.1374L54.8299 42.9879L54.9082 42.8374L54.9845 42.6869L55.0607 42.5354L55.2092 42.2303L55.2824 42.0777L55.3546 41.9242L55.497 41.615L55.5662 41.4604L55.6343 41.3048L55.7024 41.1482L55.7695 40.9916L55.8346 40.835L55.8997 40.6774L55.9638 40.5198L56.0268 40.3611L56.0889 40.2025L56.2109 39.8831L56.2699 39.7225L56.3858 39.4011L56.4417 39.2394L56.5516 38.914L56.6055 38.7513L56.7092 38.4238L56.7601 38.2601L56.8089 38.0953L56.8577 37.9296L56.9055 37.7638L56.9523 37.5981L56.998 37.4323L57.0418 37.2645L57.0855 37.0977L57.1282 36.9299L57.1699 36.7621L57.2106 36.5933L57.2502 36.4245L57.2889 36.2557L57.3265 36.0859L57.3621 35.916L57.3977 35.7452L57.4323 35.5743L57.4658 35.4035L57.4984 35.2316L57.5594 34.8879L57.5889 34.715L57.6438 34.3682L57.6702 34.1953L57.719 33.8465L57.7414 33.6716L57.7841 33.3208L57.8035 33.1448L57.8218 32.9689L57.839 32.793L57.8553 32.616L57.8706 32.4381L57.8848 32.2611L57.9092 31.9052L57.9204 31.7272L57.9387 31.3692L57.9458 31.1892L57.9519 31.0103L57.957 30.8303L57.9611 30.6492L57.9641 30.4692L57.9662 30.1072L57.9641 29.7452L57.9611 29.5652L57.957 29.3842L57.9519 29.2042L57.9458 29.0252L57.9387 28.8452L57.9204 28.4872L57.9092 28.3092L57.8848 27.9533L57.8706 27.7764L57.8553 27.5984L57.839 27.4214L57.8218 27.2455L57.8035 27.0696L57.7841 26.8936L57.7414 26.5428L57.719 26.3679L57.6702 26.0191L57.6438 25.8462L57.5889 25.4994L57.5594 25.3265L57.4984 24.9828L57.4658 24.8109L57.4323 24.6401L57.3977 24.4692L57.3621 24.2984L57.3265 24.1286L57.2889 23.9587L57.2502 23.7899L57.2106 23.6211L57.1699 23.4523L57.1282 23.2845L57.0855 23.1167L57.0418 22.9499L56.998 22.7821L56.9523 22.6164L56.9055 22.4506L56.8577 22.2848L56.8089 22.1191L56.7601 21.9543L56.7092 21.7906L56.6055 21.4631L56.5516 21.3004L56.4417 20.975L56.3858 20.8133L56.2699 20.4919L56.2109 20.3313L56.0889 20.0119L56.0268 19.8533L55.9638 19.6947L55.8997 19.537L55.8346 19.3794L55.7695 19.2228L55.7024 19.0662L55.6343 18.9096L55.5662 18.754L55.497 18.5994L55.3546 18.2902L55.2824 18.1367L55.2092 17.9841L55.0607 17.6791L54.9845 17.5275L54.9082 17.377L54.8299 17.2265L54.7516 17.077L54.6723 16.9275L54.5919 16.778L54.5106 16.6306L54.4292 16.4821L54.3458 16.3357L54.2624 16.1882L54.178 16.0428L54.0916 15.8974L54.0062 15.7519L53.9187 15.6075L53.8302 15.4631L53.7417 15.3208L53.6523 15.1774L53.5617 15.035L53.4702 14.8936L53.2851 14.613L53.1916 14.4726L53.096 14.3333L53.0014 14.195L52.9048 14.0567L52.8072 13.9194L52.7095 13.7831L52.6109 13.6469L52.5112 13.5106L52.4116 13.3763L52.2082 13.1079L52.1055 12.9746L51.898 12.7102L51.7933 12.5791L51.6875 12.4489L51.5807 12.3187L51.4729 12.1896L51.3651 12.0614L51.2563 11.9333L51.1465 11.8062L51.0367 11.6801L50.9258 11.554L50.8139 11.4289L50.7011 11.3038L50.5882 11.1797L50.4743 11.0567L50.3594 10.9346L50.2434 10.8126L50.1275 10.6916L50.0106 10.5706L49.8936 10.4516L49.6556 10.2136L49.5367 10.0967L49.4156 9.97973L49.2946 9.8638L49.1726 9.74786L49.0506 9.63295L48.9275 9.51905L48.8034 9.40617L48.6784 9.29329L48.5533 9.18142L48.3011 8.95973L48.1739 8.85091L48.0458 8.7421L47.9177 8.63431L47.7885 8.52651L47.6584 8.41973L47.5282 8.31396L47.397 8.20922L47.1326 8.00176L46.9994 7.89905L46.7309 7.69566L46.5967 7.596L46.4604 7.49634L46.3241 7.39769L46.1878 7.30007L46.0506 7.20244L45.9123 7.10583L45.7739 7.01125L45.6346 6.91566L45.4943 6.8221L45.2136 6.63701L45.0722 6.54549L44.9299 6.45498L44.7865 6.36549L44.6441 6.27701L44.4997 6.18854L44.3553 6.10108L44.2099 6.01566L44.0645 5.92922L43.919 5.84481L43.7716 5.76142L43.6251 5.67803L43.4767 5.59667L43.3292 5.51532L43.1797 5.43498L43.0302 5.35566L42.8807 5.27735L42.7302 5.19905L42.5797 5.12278L42.4282 5.0465L42.1231 4.89803L41.9706 4.82481L41.817 4.75261L41.5078 4.61023L41.3533 4.54108L41.1977 4.47294L41.0411 4.40481L40.8844 4.33769L40.7278 4.27261L40.5702 4.20752L40.4126 4.14345L40.2539 4.0804L40.0953 4.01837L39.776 3.89633L39.6153 3.83735L39.2939 3.72142L39.1322 3.66549L38.9695 3.60955L38.6441 3.50176L38.3166 3.39803L38.1529 3.34718L37.9882 3.29837L37.8224 3.24955L37.6566 3.20176L37.4909 3.15498L37.3251 3.10921L37.1573 3.06549L36.9905 3.02176L36.8227 2.97904L36.6549 2.93735L36.4861 2.89667L36.3173 2.85701L36.1485 2.81837L35.9787 2.78074L35.8088 2.74515L35.638 2.70955L35.4672 2.67498L35.2963 2.64142L35.1244 2.60888L34.7807 2.54786L34.6078 2.51837L34.261 2.46345L34.0882 2.43701L33.7394 2.3882L33.5644 2.36582L33.2136 2.32311L33.0377 2.30379L32.8617 2.28548L32.6858 2.2682L32.5088 2.25193L32.3309 2.23667L32.1539 2.22243L31.798 2.19803L31.62 2.18684L31.2621 2.16854L31.0821 2.16142L30.9031 2.15532L30.7231 2.15023L30.5421 2.14616L30.3621 2.14311L30 2.14108L29.638 2.14311Z" fill="#666D89"/>
<path fill-rule="evenodd" clip-rule="evenodd" d="M38 46.1062L22 46.1082C20.343 46.1082 19 44.7652 19 43.1082V17.1082C19 15.4502 20.343 14.1072 22 14.1072H38C39.657 14.1072 41 15.4492 41 17.1072V43.1072C41 44.7642 39.657 46.1062 38 46.1062ZM39 17.1072C39 16.5552 38.552 16.1072 38 16.1072L22 16.1082C21.448 16.1082 21 16.5562 21 17.1082V19.1082L39 19.1072V17.1072ZM39 20.1072H21V40.1042L39 40.1032V20.1072ZM39 41.1032L21 41.1042V43.1082C21 43.6592 21.448 44.1082 22 44.1082L38 44.1062C38.552 44.1062 39 43.6582 39 43.1072V41.1032ZM30.5 43.1032H29.5C29.224 43.1032 29 42.8792 29 42.6032C29 42.3262 29.224 42.1032 29.5 42.1032H30.5C30.776 42.1032 31 42.3262 31 42.6032C31 42.8792 30.776 43.1032 30.5 43.1032ZM28.5 17.1072H31.5C31.776 17.1072 32 17.3302 32 17.6072C32 17.8832 31.776 18.1072 31.5 18.1072H28.5C28.224 18.1072 28 17.8832 28 17.6072C28 17.3302 28.224 17.1072 28.5 17.1072Z" fill="#666D89"/>
</g>
<defs>
<clipPath id="clip0">
<rect width="60" height="60" fill="white" transform="translate(0 0.107178)"/>
</clipPath>
</defs>
</svg>
